<svg width="174" height="29" viewBox="0 0 174 29" fill="none" xmlns="http://www.w3.org/2000/svg">
<path d="M11.79 20.56L0.6 12.97V11.11L11.79 3.52V5.89L2.76 11.98V12.1L11.79 18.19V20.56ZM23.1183 22.36C22.1583 22.36 21.2883 22.19 20.5083 21.85C19.7483 21.51 19.0883 21.02 18.5283 20.38C17.9683 19.72 17.5383 18.92 17.2383 17.98C16.9383 17.04 16.7883 15.96 16.7883 14.74C16.7883 13.56 16.9683 12.5 17.3283 11.56C17.7083 10.6 18.1983 9.79 18.7983 9.13C19.4183 8.47 20.1283 7.96 20.9283 7.6C21.7283 7.24 22.5583 7.06 23.4183 7.06C24.2983 7.06 25.0783 7.23 25.7583 7.57C26.4583 7.89 27.1283 8.35 27.7683 8.95H27.8583L27.7383 6.25V0.64H30.1983V22H28.1583L27.9483 20.08H27.8583C27.2583 20.7 26.5383 21.24 25.6983 21.7C24.8783 22.14 24.0183 22.36 23.1183 22.36ZM23.6283 20.29C25.0683 20.29 26.4383 19.56 27.7383 18.1V10.84C27.0783 10.22 26.4283 9.78 25.7883 9.52C25.1683 9.26 24.5383 9.13 23.8983 9.13C23.2583 9.13 22.6583 9.27 22.0983 9.55C21.5583 9.81 21.0783 10.19 20.6583 10.69C20.2583 11.17 19.9383 11.75 19.6983 12.43C19.4583 13.11 19.3383 13.87 19.3383 14.71C19.3383 16.47 19.7083 17.84 20.4483 18.82C21.2083 19.8 22.2683 20.29 23.6283 20.29ZM42.8766 22.36C41.7766 22.36 40.7466 22.19 39.7866 21.85C38.8466 21.51 38.0166 21.01 37.2966 20.35C36.5966 19.69 36.0366 18.89 35.6166 17.95C35.2166 16.99 35.0166 15.9 35.0166 14.68C35.0166 13.5 35.2166 12.44 35.6166 11.5C36.0366 10.56 36.5866 9.76 37.2666 9.1C37.9666 8.44 38.7566 7.94 39.6366 7.6C40.5366 7.24 41.4766 7.06 42.4566 7.06C43.4966 7.06 44.4266 7.23 45.2466 7.57C46.0866 7.89 46.7866 8.35 47.3466 8.95C47.9266 9.55 48.3666 10.27 48.6666 11.11C48.9666 11.95 49.1166 12.88 49.1166 13.9C49.1166 14.18 49.1066 14.45 49.0866 14.71C49.0666 14.97 49.0366 15.2 48.9966 15.4H37.5066C37.6666 17.06 38.2666 18.31 39.3066 19.15C40.3666 19.97 41.6566 20.38 43.1766 20.38C44.0566 20.38 44.8466 20.26 45.5466 20.02C46.2666 19.76 46.9566 19.42 47.6166 19L48.5166 20.62C47.7966 21.1 46.9666 21.51 46.0266 21.85C45.1066 22.19 44.0566 22.36 42.8766 22.36ZM42.5166 9.01C41.9166 9.01 41.3366 9.11 40.7766 9.31C40.2366 9.51 39.7466 9.8 39.3066 10.18C38.8666 10.54 38.4966 11 38.1966 11.56C37.8966 12.12 37.6866 12.76 37.5666 13.48H46.8666C46.7666 11.98 46.3266 10.86 45.5466 10.12C44.7866 9.38 43.7766 9.01 42.5166 9.01ZM58.6448 22L52.4948 7.42H54.9848L58.3448 15.7C58.6448 16.44 58.9248 17.17 59.1848 17.89C59.4648 18.59 59.7348 19.29 59.9948 19.99H60.1148C60.3748 19.29 60.6248 18.59 60.8648 17.89C61.1248 17.17 61.4048 16.44 61.7048 15.7L65.0648 7.42H67.4348L61.4048 22H58.6448ZM77.0831 22.36C76.1231 22.36 75.2531 22.19 74.4731 21.85C73.7131 21.51 73.0531 21.02 72.4931 20.38C71.9331 19.72 71.5031 18.92 71.2031 17.98C70.9031 17.04 70.7531 15.96 70.7531 14.74C70.7531 13.56 70.9331 12.5 71.2931 11.56C71.6731 10.6 72.1631 9.79 72.7631 9.13C73.3831 8.47 74.0931 7.96 74.8931 7.6C75.6931 7.24 76.5231 7.06 77.3831 7.06C78.2631 7.06 79.0431 7.23 79.7231 7.57C80.4231 7.89 81.0931 8.35 81.7331 8.95H81.8231L81.7031 6.25V0.64H84.1631V22H82.1231L81.9131 20.08H81.8231C81.2231 20.7 80.5031 21.24 79.6631 21.7C78.8431 22.14 77.9831 22.36 77.0831 22.36ZM77.5931 20.29C79.0331 20.29 80.4031 19.56 81.7031 18.1V10.84C81.0431 10.22 80.3931 9.78 79.7531 9.52C79.1331 9.26 78.5031 9.13 77.8631 9.13C77.2231 9.13 76.6231 9.27 76.0631 9.55C75.5231 9.81 75.0431 10.19 74.6231 10.69C74.2231 11.17 73.9031 11.75 73.6631 12.43C73.4231 13.11 73.3031 13.87 73.3031 14.71C73.3031 16.47 73.6731 17.84 74.4131 18.82C75.1731 19.8 76.2331 20.29 77.5931 20.29ZM94.3214 22.36C93.6414 22.36 93.0014 22.26 92.4014 22.06C91.8014 21.88 91.2714 21.62 90.8114 21.28C90.3714 20.92 90.0214 20.49 89.7614 19.99C89.5014 19.47 89.3714 18.88 89.3714 18.22C89.3714 17.4 89.5614 16.69 89.9414 16.09C90.3414 15.47 90.9614 14.94 91.8014 14.5C92.6614 14.06 93.7614 13.7 95.1014 13.42C96.4414 13.14 98.0514 12.92 99.9314 12.76C99.9114 12.26 99.8314 11.79 99.6914 11.35C99.5514 10.91 99.3314 10.53 99.0314 10.21C98.7314 9.87 98.3314 9.6 97.8314 9.4C97.3514 9.2 96.7614 9.1 96.0614 9.1C95.1014 9.1 94.1814 9.29 93.3014 9.67C92.4214 10.03 91.6414 10.42 90.9614 10.84L90.0014 9.16C90.3614 8.92 90.7814 8.68 91.2614 8.44C91.7614 8.18 92.2814 7.95 92.8214 7.75C93.3814 7.55 93.9714 7.39 94.5914 7.27C95.2114 7.13 95.8414 7.06 96.4814 7.06C98.4814 7.06 99.9614 7.61 100.921 8.71C101.901 9.79 102.391 11.24 102.391 13.06V22H100.381L100.171 20.02H100.081C99.2614 20.66 98.3514 21.21 97.3514 21.67C96.3714 22.13 95.3614 22.36 94.3214 22.36ZM94.9814 20.38C95.8214 20.38 96.6414 20.2 97.4414 19.84C98.2614 19.46 99.0914 18.92 99.9314 18.22V14.38C98.3714 14.5 97.0614 14.67 96.0014 14.89C94.9614 15.11 94.1214 15.38 93.4814 15.7C92.8614 16 92.4214 16.35 92.1614 16.75C91.9014 17.13 91.7714 17.56 91.7714 18.04C91.7714 18.46 91.8614 18.82 92.0414 19.12C92.2214 19.4 92.4514 19.64 92.7314 19.84C93.0314 20.02 93.3714 20.16 93.7514 20.26C94.1514 20.34 94.5614 20.38 94.9814 20.38ZM108.86 28.27C108.14 28.27 107.5 28.17 106.94 27.97L107.45 26.02C107.65 26.08 107.86 26.13 108.08 26.17C108.32 26.21 108.55 26.23 108.77 26.23C109.79 26.23 110.62 25.93 111.26 25.33C111.9 24.75 112.4 24.01 112.76 23.11L113.21 22.03L106.4 7.42H108.89L112.46 15.49C112.74 16.13 113.03 16.82 113.33 17.56C113.65 18.3 113.96 19.02 114.26 19.72H114.38C114.64 19.02 114.9 18.31 115.16 17.59C115.44 16.85 115.7 16.15 115.94 15.49L119.12 7.42H121.46L115.04 23.2C114.76 23.92 114.44 24.59 114.08 25.21C113.72 25.83 113.29 26.36 112.79 26.8C112.29 27.26 111.71 27.62 111.05 27.88C110.41 28.14 109.68 28.27 108.86 28.27ZM131.048 22.36C130.088 22.36 129.218 22.19 128.438 21.85C127.678 21.51 127.018 21.02 126.458 20.38C125.898 19.72 125.468 18.92 125.168 17.98C124.868 17.04 124.718 15.96 124.718 14.74C124.718 13.56 124.898 12.5 125.258 11.56C125.638 10.6 126.128 9.79 126.728 9.13C127.348 8.47 128.058 7.96 128.858 7.6C129.658 7.24 130.488 7.06 131.348 7.06C132.228 7.06 133.008 7.23 133.688 7.57C134.388 7.89 135.058 8.35 135.698 8.95H135.788L135.668 6.25V0.64H138.128V22H136.088L135.878 20.08H135.788C135.188 20.7 134.468 21.24 133.628 21.7C132.808 22.14 131.948 22.36 131.048 22.36ZM131.558 20.29C132.998 20.29 134.368 19.56 135.668 18.1V10.84C135.008 10.22 134.358 9.78 133.718 9.52C133.098 9.26 132.468 9.13 131.828 9.13C131.188 9.13 130.588 9.27 130.028 9.55C129.488 9.81 129.008 10.19 128.588 10.69C128.188 11.17 127.868 11.75 127.628 12.43C127.388 13.11 127.268 13.87 127.268 14.71C127.268 16.47 127.638 17.84 128.378 18.82C129.138 19.8 130.198 20.29 131.558 20.29ZM144.836 28.27C144.116 28.27 143.476 28.17 142.916 27.97L143.426 26.02C143.626 26.08 143.836 26.13 144.056 26.17C144.296 26.21 144.526 26.23 144.746 26.23C145.766 26.23 146.596 25.93 147.236 25.33C147.876 24.75 148.376 24.01 148.736 23.11L149.186 22.03L142.376 7.42H144.866L148.436 15.49C148.716 16.13 149.006 16.82 149.306 17.56C149.626 18.3 149.936 19.02 150.236 19.72H150.356C150.616 19.02 150.876 18.31 151.136 17.59C151.416 16.85 151.676 16.15 151.916 15.49L155.096 7.42H157.436L151.016 23.2C150.736 23.92 150.416 24.59 150.056 25.21C149.696 25.83 149.266 26.36 148.766 26.8C148.266 27.26 147.686 27.62 147.026 27.88C146.386 28.14 145.656 28.27 144.836 28.27ZM162.105 20.56V18.19L171.135 12.1V11.98L162.105 5.89V3.52L173.295 11.11V12.97L162.105 20.56Z" fill="black"/>
</svg>
